<svg width="300" height="75" viewBox="0 0 300 75" fill="none" xmlns="http://www.w3.org/2000/svg">
<path d="M268.062 6.33044C252.205 6.33044 244.277 19.5447 244.277 30.116C244.277 40.6874 252.205 51.2588 260.134 53.9017V59.1873L266.497 64.6153C266.497 64.6153 265.42 58.848 265.42 58.1695C265.42 57.491 265.42 53.9017 265.42 53.9017C265.42 53.9017 268.062 54.9588 270.705 53.9017C270.705 53.9017 270.953 57.3134 271.486 59.0869C272.018 60.8604 279.088 66.3116 279.088 66.3116C279.088 66.3116 276.914 63.5976 276.569 59.1873C276.225 54.7771 276.569 52.1673 276.569 52.1673C284.498 49.5244 291.848 40.6874 291.848 30.116C291.848 19.5447 283.92 6.33044 268.062 6.33044Z" fill="url(#paint0_linear_5172_368)"/>
<path d="M246.92 24.8298C238.991 22.1869 236.348 27.4726 238.991 32.7583C241.634 38.044 246.92 35.4012 249.562 30.1155C251.148 26.4155 249.562 24.8298 246.92 24.8298Z" fill="url(#paint1_linear_5172_368)"/>
<path d="M260.134 8.97296C256.61 5.44917 253.967 4.21584 252.205 5.27298" stroke="#FF4D4D" stroke-width="3" stroke-linecap="round"/>
<path d="M275.991 8.97296C279.515 5.44917 282.158 4.21584 283.92 5.27298" stroke="#FF4D4D" stroke-width="3" stroke-linecap="round"/>
<path d="M260.134 22.7158C261.886 22.7158 263.305 21.2959 263.305 19.5443C263.305 17.7928 261.886 16.3729 260.134 16.3729C258.382 16.3729 256.963 17.7928 256.963 19.5443C256.963 21.2959 258.382 22.7158 260.134 22.7158Z" fill="#050810"/>
<path d="M275.991 22.7158C277.743 22.7158 279.162 21.2959 279.162 19.5443C279.162 17.7928 277.743 16.3729 275.991 16.3729C274.239 16.3729 272.82 17.7928 272.82 19.5443C272.82 21.2959 274.239 22.7158 275.991 22.7158Z" fill="#050810"/>
<path d="M260.662 20.337C261.392 20.337 261.984 19.7454 261.984 19.0156C261.984 18.2858 261.392 17.6942 260.662 17.6942C259.933 17.6942 259.341 18.2858 259.341 19.0156C259.341 19.7454 259.933 20.337 260.662 20.337Z" fill="#00E5CC"/>
<path d="M276.52 20.3368C277.249 20.3368 277.841 19.7451 277.841 19.0153C277.841 18.2855 277.249 17.6939 276.52 17.6939C275.79 17.6939 275.198 18.2855 275.198 19.0153C275.198 19.7451 275.79 20.3368 276.52 20.3368Z" fill="#00E5CC"/>
<path d="M289.205 24.83C297.134 22.1871 299.777 27.4728 297.134 32.7585C294.491 38.0442 289.205 35.4014 286.562 30.1157C284.977 26.4157 286.562 24.83 289.205 24.83Z" fill="url(#paint2_linear_5172_368)"/>
<path d="M274.838 75.0001C270.132 75.0001 265.878 73.9196 262.076 71.7588C258.275 69.5979 255.258 66.6867 253.025 63.0253C250.793 59.3638 249.676 55.2522 249.676 50.6903C249.676 46.1285 250.762 42.0169 252.935 38.3554C255.167 34.6339 258.184 31.6927 261.986 29.5319C265.847 27.371 270.132 26.2906 274.838 26.2906C279.545 26.2906 283.799 27.371 287.6 29.5319C291.462 31.6927 294.479 34.6339 296.651 38.3554C298.884 42.0169 300 46.1285 300 50.6903C300 55.2522 298.884 59.3638 296.651 63.0253C294.479 66.6867 291.492 69.5979 287.691 71.7588C283.889 73.9196 279.605 75.0001 274.838 75.0001ZM274.838 64.2858C277.312 64.2858 279.514 63.6855 281.445 62.4851C283.437 61.2846 285.005 59.6639 286.152 57.6231C287.359 55.5223 287.962 53.2114 287.962 50.6903C287.962 48.1093 287.359 45.7984 286.152 43.7576C285.005 41.7168 283.437 40.0961 281.445 38.8956C279.514 37.6351 277.312 37.0049 274.838 37.0049C272.425 37.0049 270.222 37.6351 268.231 38.8956C266.24 40.0961 264.671 41.7168 263.524 43.7576C262.378 45.7984 261.805 48.1093 261.805 50.6903C261.805 53.2114 262.378 55.5223 263.524 57.6231C264.671 59.6639 266.24 61.2846 268.231 62.4851C270.222 63.6855 272.425 64.2858 274.838 64.2858Z" fill="#88EE22"/>
<path d="M230.255 75.0001C225.608 75.0001 221.415 73.9496 217.674 71.8488C213.933 69.6879 210.976 66.7768 208.804 63.1153C206.631 59.3938 205.545 55.2522 205.545 50.6903C205.545 46.0685 206.631 41.9268 208.804 38.2654C210.976 34.6039 213.933 31.6927 217.674 29.5319C221.415 27.371 225.608 26.2906 230.255 26.2906C233.996 26.2906 237.556 27.0109 240.935 28.4515C244.374 29.892 247.331 31.9629 249.805 34.6639L242.202 42.6771C240.452 40.7564 238.612 39.3458 236.681 38.4454C234.81 37.4851 232.759 37.0049 230.526 37.0049C228.113 37.0049 225.94 37.6051 224.009 38.8056C222.139 40.0061 220.63 41.6267 219.484 43.6675C218.398 45.7084 217.855 48.0493 217.855 50.6903C217.855 53.2114 218.398 55.5223 219.484 57.6231C220.63 59.6639 222.199 61.2846 224.19 62.4851C226.182 63.6255 228.384 64.1957 230.798 64.1957C232.91 64.1957 234.871 63.7756 236.681 62.9352C238.551 62.0349 240.331 60.7144 242.021 58.9737L249.443 66.7168C247.029 69.2978 244.133 71.3386 240.754 72.8392C237.375 74.2798 233.875 75.0001 230.255 75.0001Z" fill="#88EE22"/>
<path d="M174.552 74.0997L154.368 27.191H167.854L180.797 58.4335L193.65 27.191H206.864L186.59 74.0997H174.552Z" fill="#88EE22"/>
<path d="M137.159 74.0997V6.07243C138.782 1.5006 144.816 -2.44254e-08 149.558 -2.25627e-08V74.0997H137.159Z" fill="#DDDDDD"/>
<path d="M102.883 74.91C99.5043 74.91 96.5175 74.3098 93.9228 73.1093C91.3282 71.8488 89.3068 70.1381 87.8587 67.9773C86.4105 65.8164 85.6864 63.3254 85.6864 60.5043C85.6864 56.0025 87.3759 52.5211 90.755 50.0601C94.1944 47.5391 98.9009 46.2786 104.875 46.2786C108.978 46.2786 112.839 46.9088 116.46 48.1693V44.748C116.46 42.0469 115.615 40.0061 113.926 38.6255C112.236 37.245 109.762 36.5547 106.504 36.5547C104.513 36.5547 102.37 36.8848 100.078 37.5451C97.7846 38.1453 95.1297 39.1057 92.1126 40.4262L87.5871 31.3326C91.3282 29.6519 94.8883 28.3914 98.2673 27.5511C101.707 26.7108 105.146 26.2906 108.586 26.2906C114.921 26.2906 119.839 27.8212 123.339 30.8824C126.899 33.8836 128.679 38.1453 128.679 43.6675V74.0997H116.46V70.7684C114.529 72.209 112.447 73.2594 110.215 73.9196C107.982 74.5799 105.538 74.91 102.883 74.91ZM97.4527 60.2342C97.4527 62.0349 98.2372 63.4755 99.806 64.5559C101.375 65.5763 103.457 66.0865 106.051 66.0865C108.103 66.0865 110.004 65.8464 111.753 65.3662C113.503 64.826 115.072 64.0457 116.46 63.0253V56.1825C114.951 55.5823 113.383 55.1321 111.753 54.832C110.124 54.5319 108.374 54.3818 106.504 54.3818C103.668 54.3818 101.435 54.922 99.806 56.0025C98.2372 57.0229 97.4527 58.4334 97.4527 60.2342Z" fill="#DDDDDD"/>
<path d="M58.1706 75.0002C53.4641 75.0002 49.1799 73.9198 45.3181 71.7589C41.5167 69.598 38.4997 66.6869 36.2671 63.0254C34.0345 59.3639 32.9182 55.2523 32.9182 50.6905C32.9182 46.1286 33.9742 42.017 36.0861 38.3555C38.2583 34.6941 41.1848 31.7829 44.8656 29.622C48.5463 27.4612 52.6495 26.3807 57.175 26.3807C61.7005 26.3807 65.7131 27.4912 69.2128 29.7121C72.7126 31.933 75.4581 34.9342 77.4493 38.7157C79.5009 42.4972 80.5266 46.7889 80.5266 51.5908V54.8321H45.5897C46.1327 56.6929 47.0076 58.3735 48.2145 59.8741C49.4816 61.3747 51.0203 62.5452 52.8305 63.3855C54.701 64.2259 56.6923 64.6461 58.8042 64.6461C60.9161 64.6461 62.847 64.3159 64.5968 63.6557C66.407 62.9954 67.9457 62.065 69.2128 60.8645L77.3588 68.2475C74.4624 70.5884 71.4756 72.2991 68.3983 73.3795C65.3812 74.46 61.972 75.0002 58.1706 75.0002ZM45.4086 46.0086H68.3077C67.8854 44.1478 67.1009 42.5272 65.9545 41.1466C64.8684 39.7061 63.5409 38.5956 61.972 37.8153C60.4635 36.975 58.774 36.5548 56.9034 36.5548C54.9726 36.5548 53.2227 36.945 51.6538 37.7253C50.085 38.5056 48.7575 39.616 47.6714 41.0566C46.6456 42.4372 45.8914 44.0878 45.4086 46.0086Z" fill="#DDDDDD"/>
<path d="M0 74.0997V27.191H12.3999V32.4131C13.9084 30.3722 15.7186 28.8116 17.8305 27.7312C19.9424 26.6508 22.3259 26.1105 24.9808 26.1105C27.2738 26.1706 28.9935 26.5307 30.1399 27.191V37.9953C29.2348 37.5751 28.2392 37.275 27.1531 37.0949C26.067 36.8548 24.9507 36.7348 23.8042 36.7348C21.3906 36.7348 19.1882 37.335 17.197 38.5355C15.2057 39.736 13.6067 41.4467 12.3999 43.6676V74.0997H0Z" fill="#DDDDDD"/>
<path d="M246.508 24.7328C238.056 21.9781 235.239 27.4875 238.056 32.9969C240.874 38.5064 246.508 35.7517 249.326 30.2422C251.016 26.3856 249.326 24.7328 246.508 24.7328Z" fill="url(#paint3_linear_5172_368)"/>
<path d="M288.76 24.7328C297.862 21.9781 300.896 27.4875 297.862 32.9969C294.828 38.5064 288.76 35.7517 285.726 30.2422C283.906 26.3856 285.726 24.7328 288.76 24.7328Z" fill="url(#paint4_linear_5172_368)"/>
<defs>
<linearGradient id="paint0_linear_5172_368" x1="244.277" y1="6.33044" x2="296.842" y2="53.639" gradientUnits="userSpaceOnUse">
<stop stop-color="#FF4D4D"/>
<stop offset="1" stop-color="#991B1B"/>
</linearGradient>
<linearGradient id="paint1_linear_5172_368" x1="238" y1="24.1268" x2="249.494" y2="36.3018" gradientUnits="userSpaceOnUse">
<stop stop-color="#FF4D4D"/>
<stop offset="1" stop-color="#991B1B"/>
</linearGradient>
<linearGradient id="paint2_linear_5172_368" x1="285.93" y1="24.127" x2="297.423" y2="36.302" gradientUnits="userSpaceOnUse">
<stop stop-color="#FF4D4D"/>
<stop offset="1" stop-color="#991B1B"/>
</linearGradient>
<linearGradient id="paint3_linear_5172_368" x1="237" y1="24.0001" x2="248.962" y2="36.9585" gradientUnits="userSpaceOnUse">
<stop stop-color="#FF4D4D"/>
<stop offset="1" stop-color="#991B1B"/>
</linearGradient>
<linearGradient id="paint4_linear_5172_368" x1="285" y1="24.0001" x2="296.859" y2="37.8354" gradientUnits="userSpaceOnUse">
<stop stop-color="#FF4D4D"/>
<stop offset="1" stop-color="#991B1B"/>
</linearGradient>
</defs>
</svg>
