<svg width="300" height="75" viewBox="0 0 300 75" fill="none" xmlns="http://www.w3.org/2000/svg">
<path d="M274.838 75.0001C270.132 75.0001 265.878 73.9196 262.076 71.7588C258.275 69.5979 255.258 66.6867 253.025 63.0253C250.793 59.3638 249.676 55.2522 249.676 50.6903C249.676 46.1285 250.762 42.0169 252.935 38.3554C255.167 34.6339 258.184 31.6927 261.986 29.5319C265.847 27.371 270.132 26.2906 274.838 26.2906C279.545 26.2906 283.799 27.371 287.6 29.5319C291.462 31.6927 294.479 34.6339 296.651 38.3554C298.884 42.0169 300 46.1285 300 50.6903C300 55.2522 298.884 59.3638 296.651 63.0253C294.479 66.6867 291.492 69.5979 287.691 71.7588C283.889 73.9196 279.605 75.0001 274.838 75.0001ZM274.838 64.2858C277.312 64.2858 279.514 63.6855 281.445 62.4851C283.437 61.2846 285.005 59.6639 286.152 57.6231C287.359 55.5223 287.962 53.2114 287.962 50.6903C287.962 48.1093 287.359 45.7984 286.152 43.7576C285.005 41.7168 283.437 40.0961 281.445 38.8956C279.514 37.6351 277.312 37.0049 274.838 37.0049C272.425 37.0049 270.222 37.6351 268.231 38.8956C266.24 40.0961 264.671 41.7168 263.524 43.7576C262.378 45.7984 261.805 48.1093 261.805 50.6903C261.805 53.2114 262.378 55.5223 263.524 57.6231C264.671 59.6639 266.24 61.2846 268.231 62.4851C270.222 63.6855 272.425 64.2858 274.838 64.2858Z" fill="#88EE22"/>
<path d="M230.255 75.0001C225.608 75.0001 221.415 73.9496 217.674 71.8488C213.933 69.6879 210.976 66.7768 208.804 63.1153C206.631 59.3938 205.545 55.2522 205.545 50.6903C205.545 46.0685 206.631 41.9268 208.804 38.2654C210.976 34.6039 213.933 31.6927 217.674 29.5319C221.415 27.371 225.608 26.2906 230.255 26.2906C233.996 26.2906 237.556 27.0109 240.935 28.4515C244.374 29.892 247.331 31.9629 249.805 34.6639L242.202 42.6771C240.452 40.7564 238.612 39.3458 236.681 38.4454C234.81 37.4851 232.759 37.0049 230.526 37.0049C228.113 37.0049 225.94 37.6051 224.009 38.8056C222.139 40.0061 220.63 41.6267 219.484 43.6675C218.398 45.7084 217.855 48.0493 217.855 50.6903C217.855 53.2114 218.398 55.5223 219.484 57.6231C220.63 59.6639 222.199 61.2846 224.19 62.4851C226.182 63.6255 228.384 64.1957 230.798 64.1957C232.91 64.1957 234.871 63.7756 236.681 62.9352C238.551 62.0349 240.331 60.7144 242.021 58.9737L249.443 66.7168C247.029 69.2978 244.133 71.3386 240.754 72.8392C237.375 74.2798 233.875 75.0001 230.255 75.0001Z" fill="#88EE22"/>
<path d="M174.552 74.0997L154.368 27.1909H167.854L180.797 58.4334L193.65 27.1909H206.864L186.59 74.0997H174.552Z" fill="#88EE22"/>
<path d="M137.159 74.0997V6.07243C138.782 1.5006 144.816 -2.44254e-08 149.558 -2.2562e-08V74.0997H137.159Z" fill="#DDDDDD"/>
<path d="M102.883 74.91C99.5043 74.91 96.5175 74.3098 93.9228 73.1093C91.3282 71.8488 89.3068 70.1381 87.8587 67.9773C86.4105 65.8164 85.6864 63.3254 85.6864 60.5043C85.6864 56.0025 87.3759 52.5211 90.755 50.0601C94.1944 47.5391 98.9009 46.2786 104.875 46.2786C108.978 46.2786 112.839 46.9088 116.46 48.1693V44.748C116.46 42.0469 115.615 40.0061 113.926 38.6255C112.236 37.245 109.762 36.5547 106.504 36.5547C104.513 36.5547 102.37 36.8848 100.078 37.5451C97.7846 38.1453 95.1297 39.1057 92.1126 40.4262L87.5871 31.3326C91.3282 29.6519 94.8883 28.3914 98.2673 27.5511C101.707 26.7108 105.146 26.2906 108.586 26.2906C114.921 26.2906 119.839 27.8212 123.339 30.8824C126.899 33.8836 128.679 38.1453 128.679 43.6675V74.0997H116.46V70.7684C114.529 72.209 112.447 73.2594 110.215 73.9196C107.982 74.5799 105.538 74.91 102.883 74.91ZM97.4527 60.2342C97.4527 62.0349 98.2372 63.4755 99.806 64.5559C101.375 65.5763 103.457 66.0865 106.051 66.0865C108.103 66.0865 110.004 65.8464 111.753 65.3662C113.503 64.826 115.072 64.0457 116.46 63.0253V56.1825C114.951 55.5823 113.383 55.1321 111.753 54.832C110.124 54.5319 108.374 54.3818 106.504 54.3818C103.668 54.3818 101.435 54.922 99.806 56.0025C98.2372 57.0229 97.4527 58.4334 97.4527 60.2342Z" fill="#DDDDDD"/>
<path d="M58.1706 75.0001C53.4641 75.0001 49.1799 73.9196 45.3181 71.7588C41.5167 69.5979 38.4997 66.6867 36.2671 63.0253C34.0345 59.3638 32.9182 55.2522 32.9182 50.6903C32.9182 46.1285 33.9742 42.0169 36.0861 38.3554C38.2583 34.6939 41.1848 31.7828 44.8656 29.6219C48.5463 27.461 52.6495 26.3806 57.175 26.3806C61.7005 26.3806 65.7131 27.4911 69.2128 29.7119C72.7126 31.9328 75.4581 34.934 77.4493 38.7156C79.5009 42.4971 80.5266 46.7888 80.5266 51.5907V54.832H45.5897C46.1327 56.6927 47.0076 58.3734 48.2145 59.874C49.4816 61.3746 51.0203 62.5451 52.8305 63.3854C54.701 64.2258 56.6923 64.6459 58.8042 64.6459C60.9161 64.6459 62.847 64.3158 64.5968 63.6555C66.407 62.9953 67.9457 62.0649 69.2128 60.8644L77.3588 68.2474C74.4624 70.5883 71.4756 72.299 68.3983 73.3794C65.3812 74.4599 61.972 75.0001 58.1706 75.0001ZM45.4086 46.0085H68.3077C67.8854 44.1477 67.1009 42.5271 65.9545 41.1465C64.8684 39.7059 63.5409 38.5955 61.972 37.8152C60.4635 36.9749 58.774 36.5547 56.9034 36.5547C54.9726 36.5547 53.2227 36.9448 51.6538 37.7252C50.085 38.5055 48.7575 39.6159 47.6714 41.0565C46.6456 42.437 45.8914 44.0877 45.4086 46.0085Z" fill="#DDDDDD"/>
<path d="M0 74.0997V27.1909H12.3999V32.413C13.9084 30.3722 15.7186 28.8116 17.8305 27.7311C19.9424 26.6507 22.3259 26.1105 24.9808 26.1105C27.2738 26.1705 28.9935 26.5306 30.1399 27.1909V37.9952C29.2348 37.5751 28.2392 37.2749 27.1531 37.0949C26.067 36.8548 24.9507 36.7347 23.8042 36.7347C21.3906 36.7347 19.1882 37.335 17.197 38.5354C15.2057 39.7359 13.6067 41.4466 12.3999 43.6675V74.0997H0Z" fill="#DDDDDD"/>
</svg>
