<svg width="300" height="75" viewBox="0 0 300 75" fill="none" xmlns="http://www.w3.org/2000/svg">
<path d="M275.788 75.0002C271.259 75.0002 267.165 73.9551 263.507 71.8648C259.85 69.7745 256.946 66.9585 254.798 63.4166C252.65 59.8748 251.576 55.8975 251.576 51.4847C251.576 47.0719 252.621 43.0946 254.711 39.5528C256.859 35.9529 259.762 33.1078 263.42 31.0175C267.136 28.9273 271.259 27.8821 275.788 27.8821C280.317 27.8821 284.41 28.9273 288.068 31.0175C291.784 33.1078 294.687 35.9529 296.778 39.5528C298.926 43.0946 300 47.0719 300 51.4847C300 55.8975 298.926 59.8748 296.778 63.4166C294.687 66.9585 291.813 69.7745 288.155 71.8648C284.497 73.9551 280.375 75.0002 275.788 75.0002ZM275.788 64.636C278.168 64.636 280.288 64.0553 282.146 62.8941C284.062 61.7328 285.571 60.1651 286.675 58.191C287.836 56.1588 288.416 53.9234 288.416 51.4847C288.416 48.988 287.836 46.7526 286.675 44.7784C285.571 42.8043 284.062 41.2366 282.146 40.0754C280.288 38.856 278.168 38.2464 275.788 38.2464C273.465 38.2464 271.346 38.856 269.43 40.0754C267.514 41.2366 266.004 42.8043 264.901 44.7784C263.798 46.7526 263.246 48.988 263.246 51.4847C263.246 53.9234 263.798 56.1588 264.901 58.191C266.004 60.1651 267.514 61.7328 269.43 62.8941C271.346 64.0553 273.465 64.636 275.788 64.636Z" fill="#33BB11"/>
<path d="M230.274 75.0002C225.803 75.0002 221.768 73.9841 218.168 71.9519C214.568 69.8616 211.723 67.0456 209.633 63.5037C207.542 59.9038 206.497 55.8975 206.497 51.4847C206.497 47.0139 207.542 43.0075 209.633 39.4657C211.723 35.9239 214.568 33.1078 218.168 31.0175C221.768 28.9273 225.803 27.8821 230.274 27.8821C233.874 27.8821 237.3 28.5789 240.551 29.9724C243.861 31.3659 246.706 33.3691 249.086 35.9819L241.771 43.7333C240.087 41.8753 238.316 40.5108 236.458 39.6399C234.658 38.7109 232.684 38.2464 230.535 38.2464C228.213 38.2464 226.123 38.827 224.265 39.9883C222.465 41.1495 221.013 42.7172 219.91 44.6914C218.865 46.6655 218.342 48.9299 218.342 51.4847C218.342 53.9234 218.865 56.1588 219.91 58.191C221.013 60.1651 222.523 61.7328 224.439 62.8941C226.355 63.9973 228.474 64.5489 230.797 64.5489C232.829 64.5489 234.716 64.1424 236.458 63.3295C238.258 62.4586 239.971 61.1812 241.596 59.4974L248.738 66.9875C246.416 69.4842 243.629 71.4584 240.377 72.9099C237.126 74.3034 233.758 75.0002 230.274 75.0002Z" fill="#33BB11"/>
<path d="M171.448 74.1292L152.026 28.7531H165.003L177.457 58.9748L189.825 28.7531H202.541L183.032 74.1292H171.448Z" fill="#33BB11"/>
<path d="M132.853 74.13V3.23003C136.14 0.230022 140.14 -6.76139e-05 144.14 0C144.785 1.08997e-05 144.14 0 144.785 2.17184e-05V74.13H132.853Z" fill="#606060"/>
<path d="M99.0005 74.9131C95.749 74.9131 92.8749 74.3325 90.3782 73.1712C87.8815 71.9519 85.9364 70.2971 84.5428 68.2068C83.1493 66.1166 82.4526 63.707 82.4526 60.978C82.4526 56.6233 84.0783 53.2556 87.3299 50.875C90.6394 48.4364 95.1684 47.2171 100.917 47.2171C104.865 47.2171 108.581 47.8267 112.065 49.0461V45.7365C112.065 43.1237 111.252 41.1495 109.626 39.8141C108 38.4786 105.62 37.8109 102.484 37.8109C100.568 37.8109 98.507 38.1302 96.3006 38.7689C94.0942 39.3496 91.5394 40.2786 88.6363 41.556L84.2816 32.7594C87.8815 31.1337 91.3072 29.9143 94.5587 29.1015C97.8683 28.2886 101.178 27.8821 104.487 27.8821C110.584 27.8821 115.316 29.3627 118.684 32.324C122.11 35.2271 123.822 39.3496 123.822 44.6914V74.1292H112.065V70.9068C110.207 72.3003 108.203 73.3164 106.055 73.9551C103.907 74.5937 101.555 74.9131 99.0005 74.9131ZM93.7748 60.7167C93.7748 62.4586 94.5297 63.8521 96.0393 64.8972C97.5489 65.8843 99.5521 66.3778 102.049 66.3778C104.023 66.3778 105.852 66.1456 107.536 65.6811C109.22 65.1585 110.729 64.4037 112.065 63.4166V56.7975C110.613 56.2168 109.103 55.7814 107.536 55.4911C105.968 55.2007 104.284 55.0556 102.484 55.0556C99.7553 55.0556 97.607 55.5781 96.0393 56.6233C94.5297 57.6103 93.7748 58.9748 93.7748 60.7167Z" fill="#606060"/>
<path d="M55.9752 75.0002C51.4463 75.0002 47.3238 73.955 43.6078 71.8648C39.9498 69.7745 37.0467 66.9585 34.8983 63.4166C32.75 59.8748 31.6758 55.8975 31.6758 51.4847C31.6758 47.0719 32.6919 43.0946 34.7241 39.5528C36.8144 36.0109 39.6305 33.1949 43.1723 31.1046C46.7141 29.0143 50.6624 27.9692 55.0171 27.9692C59.3719 27.9692 63.233 29.0434 66.6007 31.1917C69.9683 33.34 72.6102 36.2432 74.5263 39.9011C76.5004 43.5591 77.4875 47.7106 77.4875 52.3556V55.491H43.8691C44.3916 57.291 45.2335 58.9167 46.3948 60.3683C47.6141 61.8199 49.0947 62.9521 50.8366 63.765C52.6366 64.5779 54.5526 64.9843 56.5848 64.9843C58.617 64.9843 60.4751 64.665 62.1589 64.0263C63.9008 63.3876 65.3814 62.4876 66.6007 61.3263L74.4392 68.4681C71.6522 70.7325 68.778 72.3873 65.8168 73.4325C62.9137 74.4776 59.6331 75.0002 55.9752 75.0002ZM43.6949 46.9558H65.7297C65.3233 45.1558 64.5685 43.5881 63.4653 42.2527C62.4202 40.8592 61.1428 39.785 59.6331 39.0302C58.1816 38.2173 56.5558 37.8109 54.7559 37.8109C52.8978 37.8109 51.214 38.1883 49.7044 38.9431C48.1947 39.6979 46.9174 40.7721 45.8722 42.1656C44.8852 43.501 44.1594 45.0978 43.6949 46.9558Z" fill="#606060"/>
<path d="M0 74.1292V28.7531H11.9319V33.8046C13.3835 31.8304 15.1254 30.3208 17.1576 29.2756C19.1898 28.2305 21.4833 27.7079 24.038 27.7079C26.2444 27.766 27.8992 28.1144 29.0024 28.7531V39.2044C28.1315 38.798 27.1734 38.5077 26.1283 38.3335C25.0832 38.1012 24.009 37.9851 22.9058 37.9851C20.5833 37.9851 18.464 38.5657 16.5479 39.727C14.6319 40.8882 13.0932 42.543 11.9319 44.6914V74.1292H0Z" fill="#606060"/>
</svg>
