<svg width="256" height="256" viewBox="0 0 256 256" fill="none" xmlns="http://www.w3.org/2000/svg">
<g clip-path="url(#clip0_5072_337)">
<path d="M128 256C198.692 256 256 198.692 256 128C256 57.3075 198.692 0 128 0C57.3075 0 0 57.3075 0 128C0 198.692 57.3075 256 128 256Z" fill="url(#paint0_linear_5072_337)"/>
<mask id="mask0_5072_337" style="mask-type:alpha" maskUnits="userSpaceOnUse" x="0" y="0" width="256" height="256">
<path d="M128 256C198.692 256 256 198.692 256 128C256 57.3075 198.692 0 128 0C57.3075 0 0 57.3075 0 128C0 198.692 57.3075 256 128 256Z" fill="#999999"/>
</mask>
<g mask="url(#mask0_5072_337)">
<path d="M98.4276 192L0 0H65.7655L128.883 127.877L191.559 0H256L157.131 192H98.4276Z" fill="url(#paint1_linear_5072_337)"/>
</g>
<circle cx="128" cy="128" r="64" fill="#555555"/>
</g>
<defs>
<linearGradient id="paint0_linear_5072_337" x1="128" y1="0" x2="128" y2="256" gradientUnits="userSpaceOnUse">
<stop stop-color="#BBFF88"/>
<stop offset="0.8" stop-color="#88EE22"/>
</linearGradient>
<linearGradient id="paint1_linear_5072_337" x1="128" y1="0" x2="128" y2="192" gradientUnits="userSpaceOnUse">
<stop stop-color="#BBFF88"/>
<stop offset="0.8" stop-color="#88EE22"/>
</linearGradient>
<clipPath id="clip0_5072_337">
<rect width="256" height="256" fill="white"/>
</clipPath>
</defs>
</svg>
